<svg width="898" height="1080" viewBox="0 0 898 1080" fill="none" xmlns="http://www.w3.org/2000/svg">
<g clip-path="url(#clip0_606_97222)">
<rect width="898" height="1080" fill="#EFCC44"/>
<path d="M461.964 -53.4129H462.909C462.909 -53.6634 462.809 -53.9036 462.632 -54.0808C462.455 -54.2579 462.215 -54.3574 461.964 -54.3574V-53.4129ZM461.964 460.964V461.908C462.215 461.908 462.455 461.809 462.632 461.632C462.809 461.454 462.909 461.214 462.909 460.964H461.964ZM-52.4125 460.964H-53.357C-53.3578 461.088 -53.3339 461.211 -53.2867 461.326C-53.2395 461.441 -53.1699 461.545 -53.0821 461.633C-52.9942 461.721 -52.8898 461.791 -52.7749 461.838C-52.6599 461.885 -52.5368 461.909 -52.4125 461.908V460.964ZM-52.4125 -53.4129V-54.3574C-52.663 -54.3574 -52.9033 -54.2579 -53.0804 -54.0808C-53.2575 -53.9036 -53.357 -53.6634 -53.357 -53.4129H-52.4125ZM-22.2328 -23.2332L-22.2895 -24.1759C-22.5196 -24.162 -22.7368 -24.0645 -22.9 -23.9016C-23.0632 -23.7388 -23.1612 -23.5219 -23.1755 -23.2918L-22.2328 -23.2332ZM6.6358 5.63542L6.5149 4.69844C6.3078 4.72513 6.11538 4.81969 5.96773 4.96735C5.82007 5.115 5.72551 5.30742 5.69883 5.51452L6.6358 5.63542ZM34.1916 33.1912L34.0026 32.2655C33.8211 32.3026 33.6545 32.3921 33.5235 32.5231C33.3925 32.6541 33.3029 32.8208 33.2659 33.0023L34.1916 33.1912ZM56.4995 55.4991L56.2539 54.5867C56.0941 54.6297 55.9483 54.7139 55.8313 54.8309C55.7143 54.948 55.6301 55.0937 55.5871 55.2535L56.4995 55.4991ZM81.4313 80.431L81.1178 79.5393C80.9843 79.5862 80.863 79.6625 80.7629 79.7626C80.6629 79.8626 80.5866 79.9839 80.5397 80.1174L81.4313 80.431ZM107.674 106.674L107.285 105.812C107.075 105.907 106.907 106.075 106.813 106.285L107.674 106.674ZM132.606 131.606L132.143 130.782C131.992 130.867 131.867 130.992 131.782 131.143L132.606 131.606ZM153.601 152.601L153.076 151.815C152.972 151.883 152.883 151.972 152.815 152.076L153.601 152.601ZM186.405 180.156L185.794 179.435C185.755 179.468 185.719 179.505 185.685 179.544L186.405 180.156ZM223.147 227.394L223.757 228.116C223.796 228.082 223.833 228.046 223.867 228.006L223.147 227.394ZM431.784 430.784L431.843 431.727C432.072 431.712 432.289 431.614 432.451 431.451C432.614 431.288 432.712 431.072 432.727 430.843L431.784 430.784ZM402.916 401.915L403.037 402.852C403.244 402.826 403.436 402.731 403.584 402.583C403.731 402.436 403.826 402.243 403.853 402.036L402.916 401.915ZM375.36 374.36L375.547 375.285C375.729 375.248 375.896 375.159 376.028 375.027C376.159 374.896 376.249 374.729 376.286 374.547L375.36 374.36ZM353.052 352.052L353.298 352.964C353.457 352.921 353.603 352.837 353.72 352.72C353.837 352.603 353.922 352.457 353.964 352.297L353.052 352.052ZM328.12 327.12L328.434 328.011C328.567 327.965 328.689 327.888 328.789 327.788C328.889 327.688 328.965 327.567 329.012 327.433L328.12 327.12ZM301.877 300.877L302.267 301.738C302.476 301.644 302.644 301.476 302.739 301.266L301.877 300.877ZM276.946 275.945L277.408 276.769C277.559 276.684 277.684 276.559 277.769 276.408L276.946 275.945ZM255.95 254.95L256.476 255.736C256.579 255.667 256.668 255.579 256.736 255.475L255.95 254.95ZM461.02 -53.4129V460.964H462.909V-53.4129H461.02ZM461.964 460.019H-52.4125V461.908H461.964V460.019ZM-51.468 460.964V-53.4129H-53.357V460.964H-51.468ZM-52.4125 -52.4684H461.964V-54.3574H-52.4125V-52.4684ZM-51.4699 461.022L-21.2902 -23.1747L-23.1755 -23.2918L-53.3551 460.905L-51.4699 461.022ZM-22.1743 -22.2906L462.023 -52.4684L461.906 -54.3536L-22.2895 -24.1759L-22.1743 -22.2906ZM-51.4755 461.085L7.57277 5.75632L5.69883 5.51452L-53.3495 460.843L-51.4755 461.085ZM6.7567 6.57239L462.085 -52.4759L461.843 -54.3499L6.5149 4.69844L6.7567 6.57239ZM-51.4869 461.149L35.1172 33.3782L33.2659 33.0023L-53.3381 460.777L-51.4869 461.149ZM34.3786 34.1168L462.151 -52.4872L461.777 -54.3385L34.0026 32.2655L34.3786 34.1168ZM-51.5001 461.209L57.41 55.7428L55.5871 55.2535L-53.3249 460.718L-51.5001 461.209ZM56.7432 56.4096L462.21 -52.5005L461.719 -54.3253L56.2539 54.5867L56.7432 56.4096ZM-51.5209 461.279L82.3211 80.7464L80.5397 80.1174L-53.3041 460.652L-51.5209 461.279ZM81.743 81.3207L462.278 -52.5213L461.65 -54.3045L81.1178 79.5393L81.743 81.3207ZM-51.5511 461.353L108.534 107.063L106.813 106.285L-53.2739 460.575L-51.5511 461.353ZM108.063 107.535L462.353 -52.5515L461.575 -54.2743L107.285 105.812L108.063 107.535ZM-51.5889 461.427L133.43 132.068L131.782 131.143L-53.2361 460.501L-51.5889 461.427ZM133.069 132.429L462.427 -52.5893L461.501 -54.2365L132.143 130.782L133.069 132.429ZM-51.6267 461.489L154.383 153.124L152.815 152.076L-53.1984 460.439L-51.6267 461.489ZM154.124 153.385L462.489 -52.627L461.439 -54.1987L153.076 151.815L154.124 153.385ZM-51.6928 461.576L187.124 180.769L185.685 179.544L-53.1304 460.352L-51.6928 461.576ZM187.017 180.876L462.574 -52.6932L461.354 -54.1326L185.794 179.435L187.017 180.876ZM461.244 -54.0249L222.427 226.782L223.867 228.006L462.684 -52.8027L461.244 -54.0249ZM222.535 226.675L-53.0227 460.242L-51.8023 461.683L223.757 228.116L222.535 226.675ZM461.021 -53.4733L430.842 430.725L432.727 430.843L462.907 -53.3543L461.021 -53.4733ZM431.726 429.841L-52.4711 460.021L-52.3539 461.906L431.843 431.727L431.726 429.841ZM461.027 -53.5338L401.979 401.794L403.853 402.036L462.901 -53.292L461.027 -53.5338ZM402.795 400.978L-52.5334 460.027L-52.2916 461.901L403.037 402.852L402.795 400.978ZM461.038 -53.5999L374.434 374.173L376.286 374.547L462.89 -53.2259L461.038 -53.5999ZM375.173 373.434L-52.5995 460.038L-52.2255 461.889L375.547 375.285L375.173 373.434ZM461.052 -53.6585L352.14 351.81L353.964 352.297L462.876 -53.1673L461.052 -53.6585ZM352.808 351.139L-52.6581 460.051L-52.1669 461.876L353.298 352.964L352.808 351.139ZM461.072 -53.7246L327.23 326.808L329.012 327.433L462.856 -53.0993L461.072 -53.7246ZM327.809 326.23L-52.7242 460.072L-52.1008 461.855L328.434 328.011L327.809 326.23ZM461.103 -53.802L301.016 300.488L302.739 301.266L462.825 -53.0237L461.103 -53.802ZM301.488 300.016L-52.8017 460.102L-52.0234 461.825L302.267 301.738L301.488 300.016ZM461.14 -53.8757L276.122 275.482L277.769 276.408L462.788 -52.9501L461.14 -53.8757ZM276.483 275.121L-52.8753 460.14L-51.9497 461.787L277.408 276.769L276.483 275.121ZM461.178 -53.9381L255.165 254.425L256.736 255.475L462.75 -52.8877L461.178 -53.9381ZM255.425 254.164L-52.9377 460.178L-51.8873 461.75L256.476 255.736L255.425 254.164Z" fill="white" fill-opacity="0.5"/>
<path d="M1076.96 457.587H1077.91C1077.91 457.337 1077.81 457.096 1077.63 456.919C1077.45 456.742 1077.21 456.643 1076.96 456.643V457.587ZM1076.96 971.964V972.908C1077.21 972.908 1077.45 972.809 1077.63 972.632C1077.81 972.454 1077.91 972.214 1077.91 971.964H1076.96ZM562.587 971.964H561.643C561.642 972.088 561.666 972.211 561.713 972.326C561.761 972.441 561.83 972.545 561.918 972.633C562.006 972.721 562.11 972.791 562.225 972.838C562.34 972.885 562.463 972.909 562.587 972.908V971.964ZM562.587 457.587V456.643C562.337 456.643 562.097 456.742 561.92 456.919C561.742 457.096 561.643 457.337 561.643 457.587H562.587ZM592.767 487.767L592.71 486.824C592.48 486.838 592.263 486.936 592.1 487.098C591.937 487.261 591.839 487.478 591.825 487.708L592.767 487.767ZM621.636 516.635L621.515 515.698C621.308 515.725 621.115 515.82 620.968 515.967C620.82 516.115 620.726 516.307 620.699 516.515L621.636 516.635ZM649.192 544.191L649.003 543.266C648.821 543.303 648.655 543.392 648.524 543.523C648.393 543.654 648.303 543.821 648.266 544.002L649.192 544.191ZM671.499 566.499L671.254 565.587C671.094 565.63 670.948 565.714 670.831 565.831C670.714 565.948 670.63 566.094 670.587 566.254L671.499 566.499ZM696.431 591.431L696.118 590.539C695.984 590.586 695.863 590.663 695.763 590.763C695.663 590.863 695.587 590.984 695.54 591.117L696.431 591.431ZM722.674 617.674L722.285 616.812C722.075 616.907 721.907 617.075 721.813 617.285L722.674 617.674ZM747.606 642.606L747.143 641.782C746.992 641.867 746.867 641.992 746.782 642.143L747.606 642.606ZM768.601 663.601L768.076 662.815C767.972 662.883 767.883 662.972 767.815 663.076L768.601 663.601ZM801.405 691.156L800.794 690.435C800.755 690.468 800.719 690.505 800.685 690.544L801.405 691.156ZM838.147 738.394L838.757 739.116C838.796 739.082 838.833 739.046 838.867 739.006L838.147 738.394ZM1046.78 941.784L1046.84 942.727C1047.07 942.712 1047.29 942.614 1047.45 942.451C1047.61 942.288 1047.71 942.072 1047.73 941.843L1046.78 941.784ZM1017.92 912.915L1018.04 913.852C1018.24 913.826 1018.44 913.731 1018.58 913.583C1018.73 913.436 1018.83 913.243 1018.85 913.036L1017.92 912.915ZM990.36 885.36L990.547 886.285C990.729 886.248 990.896 886.159 991.028 886.027C991.159 885.896 991.249 885.729 991.286 885.547L990.36 885.36ZM968.052 863.052L968.298 863.964C968.457 863.921 968.603 863.837 968.72 863.72C968.837 863.603 968.922 863.457 968.964 863.297L968.052 863.052ZM943.12 838.12L943.434 839.011C943.567 838.965 943.689 838.888 943.789 838.788C943.889 838.688 943.965 838.567 944.012 838.433L943.12 838.12ZM916.877 811.877L917.267 812.738C917.476 812.644 917.644 812.476 917.739 812.266L916.877 811.877ZM891.946 786.945L892.408 787.769C892.559 787.684 892.684 787.559 892.769 787.408L891.946 786.945ZM870.95 765.95L871.476 766.736C871.579 766.667 871.668 766.579 871.736 766.475L870.95 765.95ZM1076.02 457.587V971.964H1077.91V457.587H1076.02ZM1076.96 971.019H562.587V972.908H1076.96V971.019ZM563.532 971.964V457.587H561.643V971.964H563.532ZM562.587 458.532H1076.96V456.643H562.587V458.532ZM563.53 972.022L593.71 487.825L591.825 487.708L561.645 971.905L563.53 972.022ZM592.826 488.709L1077.02 458.532L1076.91 456.646L592.71 486.824L592.826 488.709ZM563.524 972.085L622.573 516.756L620.699 516.515L561.651 971.843L563.524 972.085ZM621.757 517.572L1077.08 458.524L1076.84 456.65L621.515 515.698L621.757 517.572ZM563.513 972.149L650.117 544.378L648.266 544.002L561.662 971.777L563.513 972.149ZM649.379 545.117L1077.15 458.513L1076.78 456.661L649.003 543.266L649.379 545.117ZM563.5 972.209L672.41 566.743L670.587 566.254L561.675 971.718L563.5 972.209ZM671.743 567.41L1077.21 458.5L1076.72 456.675L671.254 565.587L671.743 567.41ZM563.479 972.279L697.321 591.746L695.54 591.117L561.696 971.652L563.479 972.279ZM696.743 592.321L1077.28 458.479L1076.65 456.695L696.118 590.539L696.743 592.321ZM563.449 972.353L723.534 618.063L721.813 617.285L561.726 971.575L563.449 972.353ZM723.063 618.535L1077.35 458.449L1076.57 456.726L722.285 616.812L723.063 618.535ZM563.411 972.427L748.43 643.068L746.782 642.143L561.764 971.501L563.411 972.427ZM748.069 643.429L1077.43 458.411L1076.5 456.763L747.143 641.782L748.069 643.429ZM563.373 972.489L769.383 664.124L767.815 663.076L561.802 971.439L563.373 972.489ZM769.124 664.385L1077.49 458.373L1076.44 456.801L768.076 662.815L769.124 664.385ZM563.307 972.576L802.124 691.769L800.685 690.544L561.87 971.352L563.307 972.576ZM802.017 691.876L1077.57 458.307L1076.35 456.867L800.794 690.435L802.017 691.876ZM1076.24 456.975L837.427 737.782L838.867 739.006L1077.68 458.197L1076.24 456.975ZM837.535 737.675L561.977 971.242L563.198 972.683L838.757 739.116L837.535 737.675ZM1076.02 457.527L1045.84 941.725L1047.73 941.843L1077.91 457.646L1076.02 457.527ZM1046.73 940.841L562.529 971.021L562.646 972.906L1046.84 942.727L1046.73 940.841ZM1076.03 457.466L1016.98 912.794L1018.85 913.036L1077.9 457.708L1076.03 457.466ZM1017.79 911.978L562.467 971.027L562.708 972.901L1018.04 913.852L1017.79 911.978ZM1076.04 457.4L989.434 885.173L991.286 885.547L1077.89 457.774L1076.04 457.4ZM990.173 884.434L562.4 971.038L562.775 972.889L990.547 886.285L990.173 884.434ZM1076.05 457.342L967.14 862.81L968.964 863.297L1077.88 457.833L1076.05 457.342ZM967.808 862.139L562.342 971.051L562.833 972.876L968.298 863.964L967.808 862.139ZM1076.07 457.275L942.23 837.808L944.012 838.433L1077.86 457.901L1076.07 457.275ZM942.809 837.23L562.276 971.072L562.899 972.855L943.434 839.011L942.809 837.23ZM1076.1 457.198L916.016 811.488L917.739 812.266L1077.83 457.976L1076.1 457.198ZM916.488 811.016L562.198 971.102L562.977 972.825L917.267 812.738L916.488 811.016ZM1076.14 457.124L891.122 786.482L892.769 787.408L1077.79 458.05L1076.14 457.124ZM891.483 786.121L562.125 971.14L563.05 972.787L892.408 787.769L891.483 786.121ZM1076.18 457.062L870.165 765.425L871.736 766.475L1077.75 458.112L1076.18 457.062ZM870.425 765.164L562.062 971.178L563.113 972.75L871.476 766.736L870.425 765.164Z" fill="white" fill-opacity="0.5"/>
</g>
<defs>
<clipPath id="clip0_606_97222">
<rect width="898" height="1080" fill="white"/>
</clipPath>
</defs>
</svg>
