<svg width="16" height="16" viewBox="0 0 16 16" fill="none" xmlns="http://www.w3.org/2000/svg">
<path d="M6.28582 14.0913C6.38461 14.4707 6.60651 14.8067 6.91674 15.0465C7.22697 15.2863 7.608 15.4164 8.0001 15.4164C8.39221 15.4164 8.77324 15.2863 9.08347 15.0465C9.3937 14.8067 9.6156 14.4707 9.71439 14.0913M8.0001 0.571289C9.30042 0.571289 10.5475 1.08784 11.4669 2.0073C12.3864 2.92677 12.903 4.17383 12.903 5.47415C12.903 10.9256 14.8915 11.9999 15.4287 11.9999H0.571533C1.1201 11.9999 3.09725 10.9141 3.09725 5.47415C3.09725 4.17383 3.6138 2.92677 4.53326 2.0073C5.45272 1.08784 6.69979 0.571289 8.0001 0.571289Z" stroke="#0D121C" stroke-linecap="round" stroke-linejoin="round"/>
</svg>
