<svg width="16" height="16" viewBox="0 0 16 16" fill="none" xmlns="http://www.w3.org/2000/svg">
<path d="M0.5 7.83333H2.83333C3.0308 7.83339 3.22386 7.77498 3.38817 7.66548C3.55249 7.55597 3.68071 7.40027 3.75667 7.218L5.49 3.14133C5.52959 3.04819 5.59651 2.96925 5.68193 2.91495C5.76734 2.86066 5.86722 2.83356 5.96836 2.83725C6.06951 2.84093 6.16715 2.87522 6.24839 2.93559C6.32962 2.99596 6.39063 3.07955 6.42333 3.17533L9.57933 12.992C9.61204 13.0878 9.67304 13.1714 9.75428 13.2317C9.83552 13.2921 9.93316 13.3264 10.0343 13.3301C10.1354 13.3338 10.2353 13.3067 10.3207 13.2524C10.4062 13.1981 10.4731 13.1191 10.5127 13.026L12.2427 8.44867C12.3186 8.2664 12.4468 8.1107 12.6112 8.00119C12.7755 7.89169 12.9685 7.83328 13.166 7.83333H15.4993" stroke="#0D121C" stroke-linecap="round" stroke-linejoin="round"/>
</svg>
