<svg width="188" height="52" viewBox="0 0 188 52" fill="none" xmlns="http://www.w3.org/2000/svg">
<path fill-rule="evenodd" clip-rule="evenodd" d="M26.6866 52C41.046 52 52.6866 40.3594 52.6866 26C52.6866 11.6406 41.046 0 26.6866 0C12.3272 0 0.686646 11.6406 0.686646 26C0.686646 40.3594 12.3272 52 26.6866 52ZM26.6866 46.4649C37.9891 46.4649 47.1516 37.3024 47.1516 25.9999C47.1516 14.6974 37.9891 5.53495 26.6866 5.53495C15.3841 5.53495 6.22166 14.6974 6.22166 25.9999C6.22166 37.3024 15.3841 46.4649 26.6866 46.4649Z" fill="url(#paint0_angular_606_97272)"/>
<g filter="url(#filter0_i_606_97272)">
<path fill-rule="evenodd" clip-rule="evenodd" d="M26.6867 46.4651C37.9892 46.4651 47.1517 37.3026 47.1517 26.0001C47.1517 14.6976 37.9892 5.53516 26.6867 5.53516C15.3842 5.53516 6.22168 14.6976 6.22168 26.0001C6.22168 37.3026 15.3842 46.4651 26.6867 46.4651ZM26.6867 37.1428C32.8407 37.1428 37.8295 32.154 37.8295 26C37.8295 19.846 32.8407 14.8571 26.6867 14.8571C20.5326 14.8571 15.5438 19.846 15.5438 26C15.5438 32.154 20.5326 37.1428 26.6867 37.1428Z" fill="url(#paint1_angular_606_97272)"/>
</g>
<path d="M78.458 29.1145L78.4786 29.2176C79.7782 29.1764 81.0571 29.1764 82.2536 29.1764C84.9352 29.1764 86.3792 29.1351 87.7613 29.0939C87.6994 29.7746 87.6994 30.8885 87.6994 31.528C87.6994 32.2087 87.72 32.8894 87.7613 33.7352H69.8767C69.918 32.9513 69.918 32.25 69.918 31.5899C69.918 30.7441 69.918 29.7127 69.8973 29.2589C71.5888 28.3513 74.2911 26.2885 76.8696 24.4319C77.7566 23.7925 78.6849 23.2768 79.5513 22.8436L79.51 22.7198C78.3136 22.7817 77.0759 22.8023 75.7145 22.8023C72.7234 22.8023 71.3207 22.8229 69.9386 22.8436C69.9592 22.1835 69.9798 21.1108 69.9798 20.5126C69.9798 19.8731 69.9798 19.0274 69.9386 18.2641H87.72C87.6994 19.0067 87.6788 19.6668 87.6788 20.3269C87.6788 21.0489 87.6788 22.3072 87.72 22.9054C86.1935 23.7512 84.007 25.4633 81.5522 27.3405C80.397 28.145 79.4069 28.6607 78.458 29.1145Z" fill="#0D121C"/>
<path d="M112.388 18.2641H118.06C116.843 21.9359 114.327 31.4042 113.728 33.7352C112.78 33.7146 111.439 33.6939 109.912 33.6939C107.891 33.6939 106.344 33.7146 105.766 33.7352C105.498 32.4769 104.879 29.7333 104.343 27.1136C104.136 25.979 103.93 24.7001 103.765 23.5449H103.6C103.414 24.7207 103.187 26.0615 102.94 27.1755C102.362 29.6096 101.702 32.3325 101.372 33.7352C100.671 33.7352 99.2269 33.6939 97.948 33.6939C95.8851 33.6939 94.6681 33.7146 94.0286 33.7352C93.286 31.0329 90.9757 21.9566 89.6555 18.2641H96.6484C96.7722 19.3574 97.5354 23.6687 98.1336 26.5154C98.3193 27.4436 98.4843 28.3513 98.6493 29.0939H98.7731C98.9381 28.3306 99.1444 27.423 99.3507 26.4741C99.9283 23.6274 100.753 19.77 100.918 18.2641C101.744 18.2848 103.724 18.3054 104.796 18.3054C105.787 18.3054 107.416 18.2848 108.179 18.2641C108.365 19.6462 109.005 23.6274 109.685 26.5566C109.954 27.5674 110.119 28.4544 110.263 29.1764H110.387C110.51 28.4338 110.655 27.5674 110.882 26.5566C111.459 23.6274 112.181 19.77 112.388 18.2641Z" fill="#0D121C"/>
<path d="M140.38 25.7728C140.38 31.2392 137.224 34.1478 129.632 34.1478C122.062 34.1478 119.03 31.2392 119.03 25.7728C119.03 20.2651 122.454 17.8516 129.653 17.8516C136.852 17.8516 140.38 20.2651 140.38 25.7728ZM129.653 29.6302C132.52 29.6302 133.655 28.3719 133.655 25.814C133.655 23.2768 132.5 22.1422 129.653 22.1422C126.827 22.1422 125.651 23.2561 125.651 25.814C125.651 28.3925 126.806 29.6302 129.653 29.6302Z" fill="#0D121C"/>
<path d="M164.135 25.7728C164.135 31.2392 160.979 34.1478 153.388 34.1478C145.818 34.1478 142.785 31.2392 142.785 25.7728C142.785 20.2651 146.21 17.8516 153.409 17.8516C160.608 17.8516 164.135 20.2651 164.135 25.7728ZM153.409 29.6302C156.276 29.6302 157.411 28.3719 157.411 25.814C157.411 23.2768 156.255 22.1422 153.409 22.1422C150.583 22.1422 149.407 23.2561 149.407 25.814C149.407 28.3925 150.562 29.6302 153.409 29.6302Z" fill="#0D121C"/>
<path d="M179.33 18.2641H187.066C185.271 20.4507 182.218 24.597 179.764 26.1234C181.146 26.6391 182.218 27.588 183.167 28.8463C185.643 31.6518 186.715 33.0751 187.313 33.7352H180.217C179.33 33.7352 178.938 33.5495 178.588 33.0132C177.309 31.4249 175.514 29.0526 174.029 27.8562H173.843C173.843 30.0221 173.864 31.9199 173.946 33.7352H167.304C167.387 31.3836 167.407 29.2795 167.407 25.9997C167.407 22.7198 167.387 20.5745 167.304 18.2641H173.946C173.843 20.3682 173.843 22.6992 173.843 25.2777H173.988C174.73 24.4319 175.514 23.5862 176.195 22.7611C177.783 20.8014 178.65 19.3574 179.33 18.2641Z" fill="#0D121C"/>
<defs>
<filter id="filter0_i_606_97272" x="6.22168" y="5.53516" width="40.93" height="40.9297" filterUnits="userSpaceOnUse" color-interpolation-filters="sRGB">
<feFlood flood-opacity="0" result="BackgroundImageFix"/>
<feBlend mode="normal" in="SourceGraphic" in2="BackgroundImageFix" result="shape"/>
<feColorMatrix in="SourceAlpha" type="matrix" values="0 0 0 0 0 0 0 0 0 0 0 0 0 0 0 0 0 0 127 0" result="hardAlpha"/>
<feOffset/>
<feGaussianBlur stdDeviation="2.03922"/>
<feComposite in2="hardAlpha" operator="arithmetic" k2="-1" k3="1"/>
<feColorMatrix type="matrix" values="0 0 0 0 0.278667 0 0 0 0 0 0 0 0 0 0.633333 0 0 0 1 0"/>
<feBlend mode="normal" in2="shape" result="effect1_innerShadow_606_97272"/>
</filter>
<radialGradient id="paint0_angular_606_97272" cx="0" cy="0" r="1" gradientUnits="userSpaceOnUse" gradientTransform="translate(27.6119 24.9822) rotate(115.362) scale(31.5379 39.2254)">
<stop stop-color="#FF61A8"/>
<stop offset="0.411458" stop-color="#6957FF"/>
<stop offset="0.59956" stop-color="#FFC83A"/>
<stop offset="0.755208" stop-color="#7F3FFF"/>
<stop offset="0.932292" stop-color="#FC00E3"/>
</radialGradient>
<radialGradient id="paint1_angular_606_97272" cx="0" cy="0" r="1" gradientUnits="userSpaceOnUse" gradientTransform="translate(27.415 25.199) rotate(115.362) scale(24.8239 30.8749)">
<stop stop-color="#FF61A8"/>
<stop offset="0.411458" stop-color="#6957FF"/>
<stop offset="0.59956" stop-color="#FFC83A"/>
<stop offset="0.755208" stop-color="#7F3FFF"/>
<stop offset="0.932292" stop-color="#FC00E3"/>
</radialGradient>
</defs>
</svg>
