<svg width="16" height="16" viewBox="0 0 16 16" fill="none" xmlns="http://www.w3.org/2000/svg">
<g clip-path="url(#clip0_898_4041)">
<mask id="path-1-inside-1_898_4041" fill="white">
<path fill-rule="evenodd" clip-rule="evenodd" d="M6.90878 0.00446604C6.41262 0.0492532 5.95257 0.223455 5.55838 0.515807C5.32247 0.690764 5.10771 0.916268 4.94272 1.16226C4.69664 1.52916 4.54615 1.95388 4.50588 2.39521C4.49635 2.49972 4.49628 7.49649 4.50582 7.60198C4.55511 8.14735 4.763 8.64559 5.11928 9.0722C5.23253 9.2078 5.42844 9.39026 5.57758 9.49902C5.91792 9.74722 6.31922 9.91228 6.73424 9.97479C6.91978 10.0027 6.94909 10.0034 7.99998 10.0034C9.05088 10.0034 9.08019 10.0027 9.26573 9.97479C10.4635 9.79439 11.3847 8.81358 11.4941 7.60207C11.5035 7.49874 11.5036 2.50694 11.4943 2.40152C11.4715 2.14465 11.4164 1.91087 11.3197 1.661C11.2766 1.54949 11.1643 1.32879 11.0975 1.22385C10.8383 0.817285 10.4883 0.49838 10.0636 0.281925C9.80085 0.148012 9.53811 0.065746 9.21968 0.017682C9.1307 0.00424844 9.11603 0.00406924 8.03198 0.00312204C7.4283 0.00259084 6.92286 0.00319884 6.90878 0.00446604ZM6.98238 1.00306C6.91877 1.00841 6.78895 1.03213 6.70974 1.0529C6.44018 1.12356 6.19885 1.26057 5.99439 1.45905C5.77872 1.66838 5.62309 1.9357 5.54894 2.2242C5.5046 2.39671 5.49555 2.50201 5.50125 2.7794L5.50582 3.0018H6.28604C7.15108 3.0018 7.10913 2.99987 7.20536 3.04397C7.33694 3.10427 7.43923 3.22031 7.48061 3.35624C7.4941 3.40055 7.49648 3.42139 7.49676 3.4978C7.49713 3.59911 7.48864 3.64091 7.45255 3.7154C7.392 3.84035 7.2779 3.93903 7.14567 3.9808L7.09438 3.997L6.29918 3.99874L5.50398 4.00048V4.49937V4.99826L6.29598 5.00013L7.08798 5.002L7.13484 5.01645C7.30579 5.06916 7.42896 5.19207 7.48249 5.3634C7.50369 5.43123 7.50389 5.56086 7.48291 5.63417C7.42631 5.83202 7.25926 5.9734 7.05434 5.99688C7.0201 6.0008 6.70835 6.00331 6.25118 6.00335L5.50398 6.0034L5.50238 6.629C5.50014 7.50717 5.50018 7.51108 5.51328 7.6002C5.61247 8.27478 6.11429 8.81741 6.77394 8.96339C6.93582 8.99921 6.91433 8.9986 7.99998 8.9986C9.08635 8.9986 9.06494 8.99922 9.22603 8.96323C9.64978 8.86857 10.0144 8.61182 10.2505 8.24193C10.3386 8.10376 10.4129 7.92893 10.4536 7.7634C10.5006 7.57222 10.4983 7.62126 10.5007 6.7698L10.5029 6.0034L9.75225 6.00335C9.29277 6.00331 8.97987 6.0008 8.94563 5.99688C8.82332 5.98287 8.73384 5.93901 8.64638 5.85024C8.56571 5.76835 8.52563 5.69272 8.50726 5.5877C8.49641 5.52569 8.49959 5.4256 8.51409 5.373C8.56066 5.204 8.6929 5.06941 8.86416 5.01672L8.91198 5.002L9.70718 5.00013L10.5024 4.99826V4.49937V4.00048L9.70398 3.99867L8.90558 3.99684L8.85758 3.98214C8.69432 3.93209 8.55939 3.7933 8.5143 3.629C8.50576 3.59789 8.50297 3.56479 8.50321 3.4978C8.50349 3.42139 8.50586 3.40055 8.51936 3.35624C8.56003 3.22263 8.66168 3.10589 8.78935 3.04614C8.88265 3.00248 8.8171 3.00566 9.69918 3.00196L10.4992 2.9986V2.7458C10.4992 2.57176 10.4965 2.47305 10.4907 2.429C10.4497 2.12075 10.3226 1.82648 10.1291 1.59202C9.87539 1.28441 9.53755 1.09053 9.12638 1.01654L9.04638 1.00215L8.02878 1.00139C7.4691 1.00098 6.99822 1.00173 6.98238 1.00306ZM2.91682 5.00511C2.72421 5.03561 2.55175 5.1988 2.51151 5.38859C2.49774 5.45357 2.4983 7.64731 2.51214 7.8306C2.5861 8.81032 2.95879 9.706 3.60265 10.4514C3.70577 10.5708 3.93233 10.7973 4.05118 10.8998C4.67578 11.4387 5.41717 11.792 6.21758 11.9322C6.51765 11.9847 6.64652 11.9942 7.11518 11.9983L7.50078 12.0016V13.5016V15.0015L6.69918 15.0033L5.89758 15.005L5.84851 15.0217C5.68352 15.0781 5.5622 15.2054 5.51568 15.3712C5.49636 15.44 5.49645 15.559 5.51588 15.6313C5.56528 15.8149 5.72838 15.9633 5.914 15.9934C5.9715 16.0027 10.0285 16.0027 10.086 15.9934C10.2716 15.9633 10.4347 15.8149 10.4841 15.6313C10.5019 15.5649 10.5033 15.4406 10.4869 15.3794C10.4407 15.2077 10.3168 15.0765 10.1472 15.0199L10.1024 15.005L9.30238 15.0018L8.50238 14.9986L8.50077 13.5001L8.49916 12.0016L8.88477 11.9983C9.35358 11.9942 9.4827 11.9847 9.78238 11.9321C10.506 11.8053 11.1843 11.5033 11.7696 11.0474C12.0414 10.8357 12.3329 10.544 12.548 10.2687C13.0479 9.62866 13.365 8.86552 13.4654 8.061C13.5001 7.7833 13.5002 7.7764 13.5005 6.5698C13.5007 5.66819 13.4991 5.44106 13.4923 5.405C13.4576 5.22061 13.311 5.06438 13.1253 5.01377C13.062 4.99652 12.933 4.99798 12.8675 5.01669C12.7214 5.0585 12.596 5.16844 12.5378 5.3058C12.5005 5.39384 12.5033 5.30349 12.4989 6.5666C12.4948 7.74518 12.4947 7.75284 12.47 7.9458C12.3899 8.57366 12.1409 9.1679 11.7511 9.661C11.3196 10.2069 10.7477 10.6086 10.0992 10.8214C9.81262 10.9154 9.57477 10.9632 9.25758 10.9904C9.11887 11.0023 6.88139 11.0023 6.74238 10.9904C6.49493 10.9692 6.26443 10.9292 6.06718 10.873C5.46844 10.7028 4.96252 10.4075 4.52981 9.97584C4.09761 9.5447 3.80021 9.03784 3.62907 8.4407C3.57579 8.25478 3.54148 8.06553 3.51266 7.7986C3.50723 7.74834 3.50397 7.39577 3.50127 6.5666L3.49749 5.405L3.48245 5.3602C3.42437 5.1872 3.29955 5.0642 3.13484 5.01766C3.08098 5.00244 2.97293 4.99622 2.91682 5.00511Z"/>
</mask>
<path fill-rule="evenodd" clip-rule="evenodd" d="M6.90878 0.00446604C6.41262 0.0492532 5.95257 0.223455 5.55838 0.515807C5.32247 0.690764 5.10771 0.916268 4.94272 1.16226C4.69664 1.52916 4.54615 1.95388 4.50588 2.39521C4.49635 2.49972 4.49628 7.49649 4.50582 7.60198C4.55511 8.14735 4.763 8.64559 5.11928 9.0722C5.23253 9.2078 5.42844 9.39026 5.57758 9.49902C5.91792 9.74722 6.31922 9.91228 6.73424 9.97479C6.91978 10.0027 6.94909 10.0034 7.99998 10.0034C9.05088 10.0034 9.08019 10.0027 9.26573 9.97479C10.4635 9.79439 11.3847 8.81358 11.4941 7.60207C11.5035 7.49874 11.5036 2.50694 11.4943 2.40152C11.4715 2.14465 11.4164 1.91087 11.3197 1.661C11.2766 1.54949 11.1643 1.32879 11.0975 1.22385C10.8383 0.817285 10.4883 0.49838 10.0636 0.281925C9.80085 0.148012 9.53811 0.065746 9.21968 0.017682C9.1307 0.00424844 9.11603 0.00406924 8.03198 0.00312204C7.4283 0.00259084 6.92286 0.00319884 6.90878 0.00446604ZM6.98238 1.00306C6.91877 1.00841 6.78895 1.03213 6.70974 1.0529C6.44018 1.12356 6.19885 1.26057 5.99439 1.45905C5.77872 1.66838 5.62309 1.9357 5.54894 2.2242C5.5046 2.39671 5.49555 2.50201 5.50125 2.7794L5.50582 3.0018H6.28604C7.15108 3.0018 7.10913 2.99987 7.20536 3.04397C7.33694 3.10427 7.43923 3.22031 7.48061 3.35624C7.4941 3.40055 7.49648 3.42139 7.49676 3.4978C7.49713 3.59911 7.48864 3.64091 7.45255 3.7154C7.392 3.84035 7.2779 3.93903 7.14567 3.9808L7.09438 3.997L6.29918 3.99874L5.50398 4.00048V4.49937V4.99826L6.29598 5.00013L7.08798 5.002L7.13484 5.01645C7.30579 5.06916 7.42896 5.19207 7.48249 5.3634C7.50369 5.43123 7.50389 5.56086 7.48291 5.63417C7.42631 5.83202 7.25926 5.9734 7.05434 5.99688C7.0201 6.0008 6.70835 6.00331 6.25118 6.00335L5.50398 6.0034L5.50238 6.629C5.50014 7.50717 5.50018 7.51108 5.51328 7.6002C5.61247 8.27478 6.11429 8.81741 6.77394 8.96339C6.93582 8.99921 6.91433 8.9986 7.99998 8.9986C9.08635 8.9986 9.06494 8.99922 9.22603 8.96323C9.64978 8.86857 10.0144 8.61182 10.2505 8.24193C10.3386 8.10376 10.4129 7.92893 10.4536 7.7634C10.5006 7.57222 10.4983 7.62126 10.5007 6.7698L10.5029 6.0034L9.75225 6.00335C9.29277 6.00331 8.97987 6.0008 8.94563 5.99688C8.82332 5.98287 8.73384 5.93901 8.64638 5.85024C8.56571 5.76835 8.52563 5.69272 8.50726 5.5877C8.49641 5.52569 8.49959 5.4256 8.51409 5.373C8.56066 5.204 8.6929 5.06941 8.86416 5.01672L8.91198 5.002L9.70718 5.00013L10.5024 4.99826V4.49937V4.00048L9.70398 3.99867L8.90558 3.99684L8.85758 3.98214C8.69432 3.93209 8.55939 3.7933 8.5143 3.629C8.50576 3.59789 8.50297 3.56479 8.50321 3.4978C8.50349 3.42139 8.50586 3.40055 8.51936 3.35624C8.56003 3.22263 8.66168 3.10589 8.78935 3.04614C8.88265 3.00248 8.8171 3.00566 9.69918 3.00196L10.4992 2.9986V2.7458C10.4992 2.57176 10.4965 2.47305 10.4907 2.429C10.4497 2.12075 10.3226 1.82648 10.1291 1.59202C9.87539 1.28441 9.53755 1.09053 9.12638 1.01654L9.04638 1.00215L8.02878 1.00139C7.4691 1.00098 6.99822 1.00173 6.98238 1.00306ZM2.91682 5.00511C2.72421 5.03561 2.55175 5.1988 2.51151 5.38859C2.49774 5.45357 2.4983 7.64731 2.51214 7.8306C2.5861 8.81032 2.95879 9.706 3.60265 10.4514C3.70577 10.5708 3.93233 10.7973 4.05118 10.8998C4.67578 11.4387 5.41717 11.792 6.21758 11.9322C6.51765 11.9847 6.64652 11.9942 7.11518 11.9983L7.50078 12.0016V13.5016V15.0015L6.69918 15.0033L5.89758 15.005L5.84851 15.0217C5.68352 15.0781 5.5622 15.2054 5.51568 15.3712C5.49636 15.44 5.49645 15.559 5.51588 15.6313C5.56528 15.8149 5.72838 15.9633 5.914 15.9934C5.9715 16.0027 10.0285 16.0027 10.086 15.9934C10.2716 15.9633 10.4347 15.8149 10.4841 15.6313C10.5019 15.5649 10.5033 15.4406 10.4869 15.3794C10.4407 15.2077 10.3168 15.0765 10.1472 15.0199L10.1024 15.005L9.30238 15.0018L8.50238 14.9986L8.50077 13.5001L8.49916 12.0016L8.88477 11.9983C9.35358 11.9942 9.4827 11.9847 9.78238 11.9321C10.506 11.8053 11.1843 11.5033 11.7696 11.0474C12.0414 10.8357 12.3329 10.544 12.548 10.2687C13.0479 9.62866 13.365 8.86552 13.4654 8.061C13.5001 7.7833 13.5002 7.7764 13.5005 6.5698C13.5007 5.66819 13.4991 5.44106 13.4923 5.405C13.4576 5.22061 13.311 5.06438 13.1253 5.01377C13.062 4.99652 12.933 4.99798 12.8675 5.01669C12.7214 5.0585 12.596 5.16844 12.5378 5.3058C12.5005 5.39384 12.5033 5.30349 12.4989 6.5666C12.4948 7.74518 12.4947 7.75284 12.47 7.9458C12.3899 8.57366 12.1409 9.1679 11.7511 9.661C11.3196 10.2069 10.7477 10.6086 10.0992 10.8214C9.81262 10.9154 9.57477 10.9632 9.25758 10.9904C9.11887 11.0023 6.88139 11.0023 6.74238 10.9904C6.49493 10.9692 6.26443 10.9292 6.06718 10.873C5.46844 10.7028 4.96252 10.4075 4.52981 9.97584C4.09761 9.5447 3.80021 9.03784 3.62907 8.4407C3.57579 8.25478 3.54148 8.06553 3.51266 7.7986C3.50723 7.74834 3.50397 7.39577 3.50127 6.5666L3.49749 5.405L3.48245 5.3602C3.42437 5.1872 3.29955 5.0642 3.13484 5.01766C3.08098 5.00244 2.97293 4.99622 2.91682 5.00511Z" fill="#4B5565" stroke="#4B5565" stroke-width="0.0128" mask="url(#path-1-inside-1_898_4041)"/>
</g>
<defs>
<clipPath id="clip0_898_4041">
<rect width="16" height="16" fill="white"/>
</clipPath>
</defs>
</svg>
