<svg width="16" height="16" viewBox="0 0 16 16" fill="none" xmlns="http://www.w3.org/2000/svg">
<path d="M2.85713 15.3371C4.11949 15.3371 5.14284 14.3137 5.14284 13.0513C5.14284 11.789 4.11949 10.7656 2.85713 10.7656C1.59476 10.7656 0.571411 11.789 0.571411 13.0513C0.571411 14.3137 1.59476 15.3371 2.85713 15.3371Z" stroke="#4B5565" stroke-linecap="round" stroke-linejoin="round"/>
<path d="M13.1429 12.4796C14.4053 12.4796 15.4286 11.4563 15.4286 10.1939C15.4286 8.93155 14.4053 7.9082 13.1429 7.9082C11.8805 7.9082 10.8572 8.93155 10.8572 10.1939C10.8572 11.4563 11.8805 12.4796 13.1429 12.4796Z" stroke="#4B5565" stroke-linecap="round" stroke-linejoin="round"/>
<path d="M15.4285 10.1942V1.23424C15.428 1.1468 15.4075 1.06064 15.3685 0.982397C15.3294 0.904151 15.273 0.835904 15.2034 0.782912C15.1339 0.72992 15.0531 0.693596 14.9673 0.676737C14.8815 0.659879 14.793 0.662935 14.7085 0.68567L5.56568 3.22281C5.44486 3.25534 5.33805 3.32663 5.26166 3.42573C5.18528 3.52483 5.14352 3.64626 5.14282 3.77138V13.0514M5.14282 6.76567L15.4285 3.90853" stroke="#4B5565" stroke-linecap="round" stroke-linejoin="round"/>
</svg>
