<svg width="33" height="32" viewBox="0 0 33 32" fill="none" xmlns="http://www.w3.org/2000/svg">
<path d="M2.75 15.9971C2.75 19.6438 4.19866 23.1412 6.77728 25.7198C9.35591 28.2984 12.8533 29.7471 16.5 29.7471C20.1467 29.7471 23.6441 28.2984 26.2227 25.7198C28.8013 23.1412 30.25 19.6438 30.25 15.9971C30.25 12.3503 28.8013 8.85298 26.2227 6.27435C23.6441 3.69573 20.1467 2.24707 16.5 2.24707C12.8533 2.24707 9.35591 3.69573 6.77728 6.27435C4.19866 8.85298 2.75 12.3503 2.75 15.9971Z" stroke="#0D121C" stroke-linecap="round" stroke-linejoin="round"/>
<path d="M12.8333 20.4159C12.8336 20.7997 12.9444 21.1753 13.1524 21.4979C13.3604 21.8204 13.6568 22.0763 14.0063 22.235C14.3558 22.3936 14.7436 22.4483 15.1234 22.3925C15.5031 22.3367 15.8588 22.1729 16.1479 21.9204L22.9166 16L16.1479 10.0759C15.859 9.82288 15.5032 9.65853 15.1233 9.60246C14.7434 9.5464 14.3553 9.601 14.0056 9.75974C13.6559 9.91847 13.3594 10.1746 13.1514 10.4975C12.9435 10.8204 12.8331 11.1964 12.8333 11.5804V20.4159Z" stroke="#0D121C" stroke-linecap="round" stroke-linejoin="round"/>
</svg>
