<svg width="16" height="16" viewBox="0 0 16 16" fill="none" xmlns="http://www.w3.org/2000/svg">
<g clip-path="url(#clip0_898_4000)">
<path d="M7.03061 1.62536C7.15295 1.76116 7.30246 1.86974 7.46944 1.94406C7.63643 2.01838 7.81717 2.05678 7.99995 2.05678C8.18272 2.05678 8.36346 2.01838 8.53045 1.94406C8.69744 1.86974 8.84694 1.76116 8.96928 1.62536L9.59995 0.933357C9.78069 0.733317 10.0189 0.594118 10.2819 0.534864C10.5449 0.475609 10.8198 0.499204 11.0689 0.60241C11.318 0.705616 11.529 0.883374 11.673 1.11129C11.817 1.3392 11.887 1.6061 11.8733 1.87536L11.8259 2.80869C11.8168 2.99076 11.8459 3.17273 11.9113 3.34288C11.9768 3.51303 12.0771 3.66758 12.2059 3.79658C12.3348 3.92558 12.4892 4.02617 12.6592 4.09187C12.8293 4.15756 13.0112 4.18691 13.1933 4.17802L14.1266 4.13069C14.3957 4.11742 14.6623 4.1877 14.8899 4.33188C15.1175 4.47607 15.2949 4.6871 15.3978 4.93607C15.5008 5.18503 15.5242 5.45974 15.4649 5.72254C15.4056 5.98535 15.2665 6.22338 15.0666 6.40402L14.3719 7.03069C14.2363 7.1532 14.1279 7.3028 14.0537 7.46983C13.9795 7.63685 13.9411 7.81759 13.9411 8.00036C13.9411 8.18313 13.9795 8.36386 14.0537 8.53089C14.1279 8.69791 14.2363 8.84751 14.3719 8.97002L15.0666 9.59669C15.2667 9.77744 15.4059 10.0157 15.4651 10.2787C15.5244 10.5417 15.5008 10.8166 15.3976 11.0657C15.2944 11.3147 15.1166 11.5257 14.8887 11.6698C14.6608 11.8138 14.3939 11.8837 14.1246 11.87L13.1913 11.8227C13.0088 11.8133 12.8264 11.8423 12.6558 11.9079C12.4853 11.9735 12.3304 12.0741 12.2012 12.2033C12.072 12.3325 11.9714 12.4874 11.9058 12.6579C11.8403 12.8285 11.8112 13.0109 11.8206 13.1934L11.8679 14.1267C11.8799 14.3946 11.8091 14.6597 11.6651 14.8859C11.5211 15.1122 11.311 15.2886 11.0633 15.3913C10.8155 15.494 10.5422 15.5179 10.2804 15.4598C10.0186 15.4017 9.78103 15.2645 9.59995 15.0667L8.97261 14.3727C8.85016 14.2371 8.70062 14.1287 8.53365 14.0545C8.36668 13.9803 8.186 13.9419 8.00328 13.9419C7.82056 13.9419 7.63988 13.9803 7.47291 14.0545C7.30594 14.1287 7.1564 14.2371 7.03395 14.3727L6.40395 15.0667C6.22315 15.2654 5.98547 15.4035 5.72331 15.4623C5.46115 15.521 5.18725 15.4974 4.93898 15.3948C4.6907 15.2921 4.48011 15.1154 4.33593 14.8887C4.19174 14.662 4.12098 14.3964 4.13328 14.128L4.18128 13.1947C4.19067 13.0122 4.16164 12.8298 4.09608 12.6593C4.03051 12.4887 3.92988 12.3338 3.80068 12.2046C3.67148 12.0754 3.5166 11.9748 3.34605 11.9092C3.1755 11.8437 2.99309 11.8146 2.81061 11.824L1.87728 11.8714C1.60814 11.8854 1.34124 11.8158 1.11324 11.6721C0.885235 11.5284 0.707302 11.3176 0.603867 11.0688C0.500433 10.8199 0.476568 10.5451 0.535548 10.2821C0.594529 10.0192 0.733464 9.78088 0.933279 9.60002L1.62728 8.97336C1.76291 8.85085 1.87133 8.70125 1.94554 8.53422C2.01975 8.3672 2.05809 8.18646 2.05809 8.00369C2.05809 7.82092 2.01975 7.64019 1.94554 7.47316C1.87133 7.30613 1.76291 7.15653 1.62728 7.03402L0.933279 6.40402C0.734112 6.22336 0.595601 5.98559 0.53668 5.72322C0.477759 5.46086 0.501303 5.1867 0.604094 4.93822C0.706885 4.68974 0.883906 4.47907 1.11096 4.33501C1.33801 4.19094 1.60402 4.12052 1.87261 4.13336L2.80595 4.18069C2.98877 4.1903 3.17156 4.16135 3.34246 4.09572C3.51337 4.03008 3.66855 3.92923 3.79794 3.79972C3.92733 3.6702 4.02803 3.51492 4.09349 3.34396C4.15896 3.17299 4.18774 2.99017 4.17795 2.80736L4.13328 1.87336C4.12068 1.60487 4.19124 1.33903 4.33531 1.11212C4.47938 0.885206 4.68996 0.708275 4.93831 0.605465C5.18665 0.502656 5.46067 0.478977 5.72297 0.537658C5.98527 0.59634 6.22308 0.734525 6.40395 0.933357L7.03061 1.62536Z" stroke="#4B5565" stroke-linecap="round" stroke-linejoin="round"/>
<path d="M5 8.00098C5 8.79663 5.31607 9.55969 5.87868 10.1223C6.44129 10.6849 7.20435 11.001 8 11.001C8.79565 11.001 9.55871 10.6849 10.1213 10.1223C10.6839 9.55969 11 8.79663 11 8.00098C11 7.20533 10.6839 6.44227 10.1213 5.87966C9.55871 5.31705 8.79565 5.00098 8 5.00098C7.20435 5.00098 6.44129 5.31705 5.87868 5.87966C5.31607 6.44227 5 7.20533 5 8.00098Z" stroke="#4B5565" stroke-linecap="round" stroke-linejoin="round"/>
</g>
<defs>
<clipPath id="clip0_898_4000">
<rect width="16" height="16" fill="white"/>
</clipPath>
</defs>
</svg>
