<svg width="20" height="20" viewBox="0 0 20 20" fill="none" xmlns="http://www.w3.org/2000/svg">
<path d="M11.6585 4.39141C11.4681 4.29626 11.255 4.256 11.043 4.27516C10.8311 4.29432 10.6286 4.37213 10.4584 4.49988L5.41675 7.70821H3.12508C2.82119 7.70821 2.52974 7.82894 2.31485 8.04382C2.09997 8.25871 1.97925 8.55015 1.97925 8.85405V11.1457C1.97925 11.4496 2.09997 11.7411 2.31485 11.9559C2.52974 12.1708 2.82119 12.2915 3.12508 12.2915H5.41675L10.4584 15.4999C10.6287 15.6276 10.8311 15.7053 11.043 15.7244C11.2549 15.7435 11.468 15.7032 11.6583 15.6081C11.8487 15.5129 12.0087 15.3666 12.1206 15.1856C12.2325 15.0046 12.2917 14.796 12.2917 14.5832V5.41655C12.2918 5.20372 12.2326 4.99508 12.1207 4.81402C12.0089 4.63295 11.8488 4.48661 11.6585 4.39141Z" stroke="#0D121C" stroke-linecap="round" stroke-linejoin="round"/>
<path d="M17.2288 12.865C17.7456 12.055 18.0202 11.1141 18.0202 10.1532C18.0202 9.19233 17.7456 8.25145 17.2288 7.44141" stroke="#0D121C" stroke-linecap="round" stroke-linejoin="round"/>
<path d="M15.0127 11.8649C15.3991 11.3893 15.61 10.7952 15.61 10.1825C15.61 9.5697 15.3991 8.9756 15.0127 8.5" stroke="#0D121C" stroke-linecap="round" stroke-linejoin="round"/>
<path d="M5.41675 7.70801V12.2913" stroke="#0D121C" stroke-linecap="round" stroke-linejoin="round"/>
</svg>
